<mxfile host="app.diagrams.net" agent="Mozilla/5.0 (Macintosh; Intel Mac OS X 10_15_7) AppleWebKit/537.36 (KHTML, like Gecko) Chrome/131.0.0.0 Safari/537.36" version="26.0.6">
  <diagram name="Page-1" id="X-Ikt2yS38_xHKI1-joO">
    <mxGraphModel dx="1167" dy="1828" grid="1" gridSize="10" guides="1" tooltips="1" connect="1" arrows="1" fold="1" page="1" pageScale="1" pageWidth="827" pageHeight="1169" math="0" shadow="0">
      <root>
        <mxCell id="0" />
        <mxCell id="1" parent="0" />
        <mxCell id="FhZttKuwCezYCY0k29h0-20" value="" style="swimlane;startSize=0;" parent="1" vertex="1">
          <mxGeometry x="280" y="-390" width="1350" height="1520" as="geometry" />
        </mxCell>
        <mxCell id="FhZttKuwCezYCY0k29h0-2" value="" style="image;sketch=0;aspect=fixed;html=1;points=[];align=center;fontSize=12;image=img/lib/mscae/Docker.svg;" parent="FhZttKuwCezYCY0k29h0-20" vertex="1">
          <mxGeometry x="40" width="50" height="41" as="geometry" />
        </mxCell>
        <mxCell id="CQuIktSU1pAItVcYqkuW-55" style="edgeStyle=orthogonalEdgeStyle;rounded=0;orthogonalLoop=1;jettySize=auto;html=1;exitX=1;exitY=0.8;exitDx=0;exitDy=0;exitPerimeter=0;" parent="FhZttKuwCezYCY0k29h0-20" source="FhZttKuwCezYCY0k29h0-26" target="CQuIktSU1pAItVcYqkuW-53" edge="1">
          <mxGeometry relative="1" as="geometry" />
        </mxCell>
        <mxCell id="FhZttKuwCezYCY0k29h0-26" value="Public Api Gateway&lt;br&gt;&lt;b&gt;192.168.50.40&lt;/b&gt;" style="outlineConnect=0;dashed=0;verticalLabelPosition=bottom;verticalAlign=top;align=center;html=1;shape=mxgraph.aws3.api_gateway;fillColor=#D9A741;gradientColor=none;" parent="FhZttKuwCezYCY0k29h0-20" vertex="1">
          <mxGeometry x="80" y="428.5" width="76.5" height="93" as="geometry" />
        </mxCell>
        <mxCell id="CQuIktSU1pAItVcYqkuW-56" style="edgeStyle=orthogonalEdgeStyle;rounded=0;orthogonalLoop=1;jettySize=auto;html=1;exitX=1;exitY=0.21;exitDx=0;exitDy=0;exitPerimeter=0;" parent="FhZttKuwCezYCY0k29h0-20" source="FhZttKuwCezYCY0k29h0-31" target="CQuIktSU1pAItVcYqkuW-53" edge="1">
          <mxGeometry relative="1" as="geometry" />
        </mxCell>
        <mxCell id="FhZttKuwCezYCY0k29h0-31" value="Staff Api Gateway&lt;br&gt;&lt;b&gt;192.168.50.31&lt;/b&gt;" style="outlineConnect=0;dashed=0;verticalLabelPosition=bottom;verticalAlign=top;align=center;html=1;shape=mxgraph.aws3.api_gateway;fillColor=#D9A741;gradientColor=none;" parent="FhZttKuwCezYCY0k29h0-20" vertex="1">
          <mxGeometry x="80" y="588.5" width="76.5" height="93" as="geometry" />
        </mxCell>
        <mxCell id="CQuIktSU1pAItVcYqkuW-53" value="" style="sketch=0;outlineConnect=0;fontColor=#232F3E;gradientColor=none;fillColor=#8C4FFF;strokeColor=none;dashed=0;verticalLabelPosition=bottom;verticalAlign=top;align=center;html=1;fontSize=12;fontStyle=0;aspect=fixed;pointerEvents=1;shape=mxgraph.aws4.nat_gateway;" parent="FhZttKuwCezYCY0k29h0-20" vertex="1">
          <mxGeometry x="250" y="510.5" width="78" height="78" as="geometry" />
        </mxCell>
        <mxCell id="CQuIktSU1pAItVcYqkuW-18" value="Tier 5" style="swimlane;horizontal=0;whiteSpace=wrap;html=1;" parent="FhZttKuwCezYCY0k29h0-20" vertex="1">
          <mxGeometry x="480" y="1380" width="280" height="126.37" as="geometry" />
        </mxCell>
        <mxCell id="CQuIktSU1pAItVcYqkuW-30" value="Stamp duty service&lt;br&gt;Land Registration" style="text;html=1;align=left;verticalAlign=middle;resizable=0;points=[];autosize=1;strokeColor=none;fillColor=none;" parent="CQuIktSU1pAItVcYqkuW-18" vertex="1">
          <mxGeometry x="140" y="14.395604395604394" width="130" height="40" as="geometry" />
        </mxCell>
        <mxCell id="CQuIktSU1pAItVcYqkuW-31" value="&lt;b&gt;192.168.50.127&lt;br&gt;&lt;/b&gt;Ubuntu&lt;br&gt;32 GB&lt;br&gt;32 Cores&lt;div&gt;&lt;br&gt;&lt;/div&gt;" style="text;html=1;align=left;verticalAlign=middle;resizable=0;points=[];autosize=1;strokeColor=none;fillColor=none;" parent="CQuIktSU1pAItVcYqkuW-18" vertex="1">
          <mxGeometry x="25" width="110" height="90" as="geometry" />
        </mxCell>
        <mxCell id="CQuIktSU1pAItVcYqkuW-60" style="edgeStyle=orthogonalEdgeStyle;rounded=0;orthogonalLoop=1;jettySize=auto;html=1;entryX=0;entryY=0.5;entryDx=0;entryDy=0;" parent="FhZttKuwCezYCY0k29h0-20" source="CQuIktSU1pAItVcYqkuW-53" target="CQuIktSU1pAItVcYqkuW-18" edge="1">
          <mxGeometry relative="1" as="geometry">
            <Array as="points">
              <mxPoint x="380" y="979" />
              <mxPoint x="380" y="1350" />
            </Array>
          </mxGeometry>
        </mxCell>
        <mxCell id="FhZttKuwCezYCY0k29h0-25" value="Client App" style="swimlane;" parent="1" vertex="1">
          <mxGeometry x="40" y="300" width="200" height="480" as="geometry" />
        </mxCell>
        <mxCell id="FhZttKuwCezYCY0k29h0-10" value="Ardhisasa" style="fontColor=#0066CC;verticalAlign=top;verticalLabelPosition=bottom;labelPosition=center;align=center;html=1;outlineConnect=0;fillColor=#CCCCCC;strokeColor=#6881B3;gradientColor=none;gradientDirection=north;strokeWidth=2;shape=mxgraph.networks.pc;" parent="FhZttKuwCezYCY0k29h0-25" vertex="1">
          <mxGeometry x="50" y="180" width="100" height="70" as="geometry" />
        </mxCell>
        <mxCell id="FhZttKuwCezYCY0k29h0-30" value="Ardhipay" style="fontColor=#0066CC;verticalAlign=top;verticalLabelPosition=bottom;labelPosition=center;align=center;html=1;outlineConnect=0;fillColor=#CCCCCC;strokeColor=#6881B3;gradientColor=none;gradientDirection=north;strokeWidth=2;shape=mxgraph.networks.pc;" parent="FhZttKuwCezYCY0k29h0-25" vertex="1">
          <mxGeometry x="50" y="340" width="100" height="70" as="geometry" />
        </mxCell>
        <mxCell id="CQuIktSU1pAItVcYqkuW-65" value="" style="sketch=0;aspect=fixed;pointerEvents=1;shadow=0;dashed=0;html=1;strokeColor=none;labelPosition=center;verticalLabelPosition=bottom;verticalAlign=top;align=center;fillColor=#00188D;shape=mxgraph.mscae.enterprise.android_phone" parent="FhZttKuwCezYCY0k29h0-25" vertex="1">
          <mxGeometry x="85" y="90" width="30" height="50" as="geometry" />
        </mxCell>
        <mxCell id="FhZttKuwCezYCY0k29h0-33" style="edgeStyle=orthogonalEdgeStyle;rounded=0;orthogonalLoop=1;jettySize=auto;html=1;entryX=0.35;entryY=0.5;entryDx=0;entryDy=0;entryPerimeter=0;" parent="1" source="FhZttKuwCezYCY0k29h0-10" target="FhZttKuwCezYCY0k29h0-26" edge="1">
          <mxGeometry relative="1" as="geometry" />
        </mxCell>
        <mxCell id="FhZttKuwCezYCY0k29h0-34" style="edgeStyle=orthogonalEdgeStyle;rounded=0;orthogonalLoop=1;jettySize=auto;html=1;entryX=0.35;entryY=0.5;entryDx=0;entryDy=0;entryPerimeter=0;" parent="1" source="FhZttKuwCezYCY0k29h0-30" target="FhZttKuwCezYCY0k29h0-31" edge="1">
          <mxGeometry relative="1" as="geometry" />
        </mxCell>
        <mxCell id="FhZttKuwCezYCY0k29h0-1" value="" style="image;sketch=0;aspect=fixed;html=1;points=[];align=center;fontSize=12;image=img/lib/mscae/Cache_Redis_Product.svg;" parent="1" vertex="1">
          <mxGeometry x="1120" y="-430" width="39.29" height="33" as="geometry" />
        </mxCell>
        <mxCell id="CQuIktSU1pAItVcYqkuW-52" value="" style="group" parent="1" vertex="1" connectable="0">
          <mxGeometry x="740" y="-350" width="854" height="1350" as="geometry" />
        </mxCell>
        <mxCell id="FhZttKuwCezYCY0k29h0-29" value="ACL Service" style="swimlane;horizontal=0;whiteSpace=wrap;html=1;" parent="CQuIktSU1pAItVcYqkuW-52" vertex="1">
          <mxGeometry width="260" height="110" as="geometry" />
        </mxCell>
        <mxCell id="CQuIktSU1pAItVcYqkuW-22" value="&lt;b&gt;192.168.50.133&lt;br&gt;&lt;/b&gt;Ubuntu&lt;br&gt;32 GB&lt;br&gt;32 Cores" style="text;html=1;align=left;verticalAlign=middle;resizable=0;points=[];autosize=1;strokeColor=none;fillColor=none;" parent="FhZttKuwCezYCY0k29h0-29" vertex="1">
          <mxGeometry x="30" width="110" height="70" as="geometry" />
        </mxCell>
        <mxCell id="CQuIktSU1pAItVcYqkuW-32" value="Usermanagement" style="text;html=1;align=center;verticalAlign=middle;resizable=0;points=[];autosize=1;strokeColor=none;fillColor=none;" parent="FhZttKuwCezYCY0k29h0-29" vertex="1">
          <mxGeometry x="140" y="14.395604395604394" width="120" height="30" as="geometry" />
        </mxCell>
        <mxCell id="FhZttKuwCezYCY0k29h0-37" value="Payment Service" style="swimlane;horizontal=0;whiteSpace=wrap;html=1;" parent="CQuIktSU1pAItVcYqkuW-52" vertex="1">
          <mxGeometry y="150" width="260" height="120" as="geometry" />
        </mxCell>
        <mxCell id="CQuIktSU1pAItVcYqkuW-23" value="&lt;span style=&quot;background-color: initial;&quot;&gt;&lt;b&gt;192.168.50.132&lt;/b&gt;&lt;/span&gt;&lt;br&gt;&lt;span style=&quot;background-color: initial;&quot;&gt;Ubuntu&lt;/span&gt;&lt;br&gt;&lt;span style=&quot;background-color: initial;&quot;&gt;32 GB&lt;/span&gt;&lt;br&gt;&lt;span style=&quot;background-color: initial;&quot;&gt;32 Cores&lt;/span&gt;" style="text;html=1;align=left;verticalAlign=middle;resizable=0;points=[];autosize=1;strokeColor=none;fillColor=none;" parent="FhZttKuwCezYCY0k29h0-37" vertex="1">
          <mxGeometry x="30" width="110" height="70" as="geometry" />
        </mxCell>
        <mxCell id="CQuIktSU1pAItVcYqkuW-33" value="Payment Service" style="text;html=1;align=center;verticalAlign=middle;resizable=0;points=[];autosize=1;strokeColor=none;fillColor=none;" parent="FhZttKuwCezYCY0k29h0-37" vertex="1">
          <mxGeometry x="140" y="28.79120879120879" width="110" height="30" as="geometry" />
        </mxCell>
        <mxCell id="FhZttKuwCezYCY0k29h0-39" value="Tier 1" style="swimlane;horizontal=0;whiteSpace=wrap;html=1;" parent="CQuIktSU1pAItVcYqkuW-52" vertex="1">
          <mxGeometry x="20" y="835" width="280" height="113.2" as="geometry" />
        </mxCell>
        <mxCell id="CQuIktSU1pAItVcYqkuW-25" value="&lt;b&gt;&lt;span style=&quot;background-color: initial;&quot;&gt;192.168.50.37&lt;/span&gt;&lt;br&gt;&lt;/b&gt;&lt;span style=&quot;background-color: initial;&quot;&gt;Ubuntu&lt;/span&gt;&lt;br&gt;&lt;span style=&quot;background-color: initial;&quot;&gt;64 GB&lt;/span&gt;&lt;br&gt;&lt;span style=&quot;background-color: initial;&quot;&gt;64 Cores&lt;/span&gt;" style="text;html=1;align=left;verticalAlign=middle;resizable=0;points=[];autosize=1;strokeColor=none;fillColor=none;" parent="FhZttKuwCezYCY0k29h0-39" vertex="1">
          <mxGeometry x="30" width="100" height="70" as="geometry" />
        </mxCell>
        <mxCell id="CQuIktSU1pAItVcYqkuW-1" value="Tier 2" style="swimlane;horizontal=0;whiteSpace=wrap;html=1;" parent="CQuIktSU1pAItVcYqkuW-52" vertex="1">
          <mxGeometry x="20" y="1000" width="280" height="107.03" as="geometry" />
        </mxCell>
        <mxCell id="CQuIktSU1pAItVcYqkuW-26" value="&lt;b&gt;192.168.50.38&lt;/b&gt;&lt;br style=&quot;border-color: var(--border-color);&quot;&gt;&lt;span style=&quot;border-color: var(--border-color); background-color: initial;&quot;&gt;Ubuntu&lt;/span&gt;&lt;br style=&quot;border-color: var(--border-color);&quot;&gt;&lt;span style=&quot;border-color: var(--border-color); background-color: initial;&quot;&gt;64 GB&lt;/span&gt;&lt;br style=&quot;border-color: var(--border-color);&quot;&gt;&lt;span style=&quot;border-color: var(--border-color); background-color: initial;&quot;&gt;64 Cores&lt;/span&gt;" style="text;html=1;align=left;verticalAlign=middle;resizable=0;points=[];autosize=1;strokeColor=none;fillColor=none;" parent="CQuIktSU1pAItVcYqkuW-1" vertex="1">
          <mxGeometry x="25" width="100" height="70" as="geometry" />
        </mxCell>
        <mxCell id="CQuIktSU1pAItVcYqkuW-27" value="Land Administration&lt;br&gt;Land Survey&lt;br&gt;Land Valuation&lt;br&gt;Physical Planning" style="text;html=1;align=left;verticalAlign=middle;resizable=0;points=[];autosize=1;strokeColor=none;fillColor=none;" parent="CQuIktSU1pAItVcYqkuW-1" vertex="1">
          <mxGeometry x="120" width="130" height="70" as="geometry" />
        </mxCell>
        <mxCell id="CQuIktSU1pAItVcYqkuW-16" value="Tier 3" style="swimlane;horizontal=0;whiteSpace=wrap;html=1;" parent="CQuIktSU1pAItVcYqkuW-52" vertex="1">
          <mxGeometry x="20" y="1180" width="280" height="126.7" as="geometry" />
        </mxCell>
        <mxCell id="CQuIktSU1pAItVcYqkuW-29" value="&lt;b&gt;192.168.50.39&lt;br&gt;&lt;/b&gt;Ubuntu&lt;br&gt;32 GB&lt;br&gt;32 Cores" style="text;html=1;align=left;verticalAlign=middle;resizable=0;points=[];autosize=1;strokeColor=none;fillColor=none;" parent="CQuIktSU1pAItVcYqkuW-16" vertex="1">
          <mxGeometry x="30" width="100" height="70" as="geometry" />
        </mxCell>
        <mxCell id="CQuIktSU1pAItVcYqkuW-45" value="Check the Db Architecture" style="rounded=0;whiteSpace=wrap;html=1;" parent="CQuIktSU1pAItVcYqkuW-52" vertex="1">
          <mxGeometry x="550" y="561.4285714285713" width="120" height="86.37362637362637" as="geometry" />
        </mxCell>
        <mxCell id="CQuIktSU1pAItVcYqkuW-39" style="edgeStyle=orthogonalEdgeStyle;rounded=0;orthogonalLoop=1;jettySize=auto;html=1;entryX=0.5;entryY=0;entryDx=0;entryDy=0;" parent="CQuIktSU1pAItVcYqkuW-52" source="FhZttKuwCezYCY0k29h0-29" target="CQuIktSU1pAItVcYqkuW-45" edge="1">
          <mxGeometry relative="1" as="geometry">
            <mxPoint x="579.3809523809523" y="439.0659340659341" as="targetPoint" />
          </mxGeometry>
        </mxCell>
        <mxCell id="CQuIktSU1pAItVcYqkuW-46" style="edgeStyle=orthogonalEdgeStyle;rounded=0;orthogonalLoop=1;jettySize=auto;html=1;exitX=1;exitY=0.75;exitDx=0;exitDy=0;entryX=0.5;entryY=0;entryDx=0;entryDy=0;" parent="CQuIktSU1pAItVcYqkuW-52" source="FhZttKuwCezYCY0k29h0-37" target="CQuIktSU1pAItVcYqkuW-45" edge="1">
          <mxGeometry relative="1" as="geometry" />
        </mxCell>
        <mxCell id="CQuIktSU1pAItVcYqkuW-41" style="edgeStyle=orthogonalEdgeStyle;rounded=0;orthogonalLoop=1;jettySize=auto;html=1;entryX=0;entryY=0.5;entryDx=0;entryDy=0;" parent="CQuIktSU1pAItVcYqkuW-52" source="FhZttKuwCezYCY0k29h0-39" target="CQuIktSU1pAItVcYqkuW-45" edge="1">
          <mxGeometry relative="1" as="geometry">
            <mxPoint x="530" y="532.6373626373626" as="targetPoint" />
          </mxGeometry>
        </mxCell>
        <mxCell id="CQuIktSU1pAItVcYqkuW-47" style="edgeStyle=orthogonalEdgeStyle;rounded=0;orthogonalLoop=1;jettySize=auto;html=1;entryX=0.5;entryY=1;entryDx=0;entryDy=0;exitX=1;exitY=0.5;exitDx=0;exitDy=0;" parent="CQuIktSU1pAItVcYqkuW-52" source="CQuIktSU1pAItVcYqkuW-1" target="CQuIktSU1pAItVcYqkuW-45" edge="1">
          <mxGeometry relative="1" as="geometry">
            <mxPoint x="260" y="806.1538461538461" as="sourcePoint" />
          </mxGeometry>
        </mxCell>
        <mxCell id="CQuIktSU1pAItVcYqkuW-48" style="edgeStyle=orthogonalEdgeStyle;rounded=0;orthogonalLoop=1;jettySize=auto;html=1;exitX=1;exitY=0.5;exitDx=0;exitDy=0;entryX=0.5;entryY=1;entryDx=0;entryDy=0;" parent="CQuIktSU1pAItVcYqkuW-52" source="CQuIktSU1pAItVcYqkuW-16" target="CQuIktSU1pAItVcYqkuW-45" edge="1">
          <mxGeometry relative="1" as="geometry">
            <mxPoint x="600" y="590.2197802197801" as="targetPoint" />
          </mxGeometry>
        </mxCell>
        <mxCell id="CQuIktSU1pAItVcYqkuW-50" value="DB" style="image;aspect=fixed;html=1;points=[];align=center;fontSize=12;image=img/lib/azure2/databases/Azure_Database_PostgreSQL_Server.svg;" parent="CQuIktSU1pAItVcYqkuW-52" vertex="1">
          <mxGeometry x="760" y="524" width="84" height="112" as="geometry" />
        </mxCell>
        <mxCell id="CQuIktSU1pAItVcYqkuW-51" style="edgeStyle=orthogonalEdgeStyle;rounded=0;orthogonalLoop=1;jettySize=auto;html=1;" parent="CQuIktSU1pAItVcYqkuW-52" source="CQuIktSU1pAItVcYqkuW-45" target="CQuIktSU1pAItVcYqkuW-50" edge="1">
          <mxGeometry relative="1" as="geometry" />
        </mxCell>
        <mxCell id="CQuIktSU1pAItVcYqkuW-24" value="Shared Service&lt;br&gt;Workflow Service&lt;br&gt;Registration Bureau&lt;div&gt;KRA Relay Gateway&lt;/div&gt;" style="text;html=1;align=left;verticalAlign=middle;resizable=0;points=[];autosize=1;strokeColor=none;fillColor=none;" parent="CQuIktSU1pAItVcYqkuW-52" vertex="1">
          <mxGeometry x="160" y="840.0021978021978" width="130" height="70" as="geometry" />
        </mxCell>
        <mxCell id="CQuIktSU1pAItVcYqkuW-28" value="Event Service&lt;br&gt;Configuration Service&lt;br&gt;Ticketing Service&lt;br&gt;NLC Land Admin&lt;br&gt;NLC Land Valuation&lt;br&gt;Dispatch Service&lt;br&gt;PDF Make Service&lt;div&gt;Records Management Service&lt;/div&gt;" style="text;html=1;align=left;verticalAlign=middle;resizable=0;points=[];autosize=1;strokeColor=none;fillColor=none;" parent="CQuIktSU1pAItVcYqkuW-52" vertex="1">
          <mxGeometry x="135" y="1176.698901098901" width="180" height="130" as="geometry" />
        </mxCell>
        <mxCell id="_RFIVC-mQC5Zg40zyzjJ-3" value="Register Service" style="swimlane;horizontal=0;whiteSpace=wrap;html=1;" vertex="1" parent="CQuIktSU1pAItVcYqkuW-52">
          <mxGeometry y="310" width="260" height="120" as="geometry" />
        </mxCell>
        <mxCell id="_RFIVC-mQC5Zg40zyzjJ-4" value="&lt;span style=&quot;background-color: initial;&quot;&gt;&lt;b&gt;192.168.50.132&lt;/b&gt;&lt;/span&gt;&lt;br&gt;&lt;span style=&quot;background-color: initial;&quot;&gt;Ubuntu&lt;/span&gt;&lt;br&gt;&lt;span style=&quot;background-color: initial;&quot;&gt;32 GB&lt;/span&gt;&lt;br&gt;&lt;span style=&quot;background-color: initial;&quot;&gt;32 Cores&lt;/span&gt;" style="text;html=1;align=left;verticalAlign=middle;resizable=0;points=[];autosize=1;strokeColor=none;fillColor=none;" vertex="1" parent="_RFIVC-mQC5Zg40zyzjJ-3">
          <mxGeometry x="30" width="110" height="70" as="geometry" />
        </mxCell>
        <mxCell id="_RFIVC-mQC5Zg40zyzjJ-5" value="Register Service" style="text;html=1;align=center;verticalAlign=middle;resizable=0;points=[];autosize=1;strokeColor=none;fillColor=none;" vertex="1" parent="_RFIVC-mQC5Zg40zyzjJ-3">
          <mxGeometry x="140" y="28.79120879120879" width="110" height="30" as="geometry" />
        </mxCell>
        <mxCell id="_RFIVC-mQC5Zg40zyzjJ-6" value="Cadastre Service" style="swimlane;horizontal=0;whiteSpace=wrap;html=1;" vertex="1" parent="CQuIktSU1pAItVcYqkuW-52">
          <mxGeometry y="470" width="260" height="120" as="geometry" />
        </mxCell>
        <mxCell id="_RFIVC-mQC5Zg40zyzjJ-7" value="&lt;span style=&quot;background-color: initial;&quot;&gt;&lt;b&gt;192.168.50.132&lt;/b&gt;&lt;/span&gt;&lt;br&gt;&lt;span style=&quot;background-color: initial;&quot;&gt;Ubuntu&lt;/span&gt;&lt;br&gt;&lt;span style=&quot;background-color: initial;&quot;&gt;32 GB&lt;/span&gt;&lt;br&gt;&lt;span style=&quot;background-color: initial;&quot;&gt;32 Cores&lt;/span&gt;" style="text;html=1;align=left;verticalAlign=middle;resizable=0;points=[];autosize=1;strokeColor=none;fillColor=none;" vertex="1" parent="_RFIVC-mQC5Zg40zyzjJ-6">
          <mxGeometry x="30" width="110" height="70" as="geometry" />
        </mxCell>
        <mxCell id="_RFIVC-mQC5Zg40zyzjJ-8" value="&lt;span style=&quot;text-wrap-mode: wrap;&quot;&gt;Cadastre Service&lt;/span&gt;" style="text;html=1;align=center;verticalAlign=middle;resizable=0;points=[];autosize=1;strokeColor=none;fillColor=none;" vertex="1" parent="_RFIVC-mQC5Zg40zyzjJ-6">
          <mxGeometry x="135" y="28.79120879120879" width="120" height="30" as="geometry" />
        </mxCell>
        <mxCell id="_RFIVC-mQC5Zg40zyzjJ-9" value="Ardhipay Service" style="swimlane;horizontal=0;whiteSpace=wrap;html=1;" vertex="1" parent="CQuIktSU1pAItVcYqkuW-52">
          <mxGeometry y="630" width="260" height="120" as="geometry" />
        </mxCell>
        <mxCell id="_RFIVC-mQC5Zg40zyzjJ-10" value="&lt;span style=&quot;background-color: initial;&quot;&gt;&lt;b&gt;192.168.50.132&lt;/b&gt;&lt;/span&gt;&lt;br&gt;&lt;span style=&quot;background-color: initial;&quot;&gt;Ubuntu&lt;/span&gt;&lt;br&gt;&lt;span style=&quot;background-color: initial;&quot;&gt;32 GB&lt;/span&gt;&lt;br&gt;&lt;span style=&quot;background-color: initial;&quot;&gt;32 Cores&lt;/span&gt;" style="text;html=1;align=left;verticalAlign=middle;resizable=0;points=[];autosize=1;strokeColor=none;fillColor=none;" vertex="1" parent="_RFIVC-mQC5Zg40zyzjJ-9">
          <mxGeometry x="30" width="110" height="70" as="geometry" />
        </mxCell>
        <mxCell id="_RFIVC-mQC5Zg40zyzjJ-11" value="&lt;span style=&quot;text-wrap-mode: wrap;&quot;&gt;Ardhipay Service&lt;/span&gt;" style="text;html=1;align=center;verticalAlign=middle;resizable=0;points=[];autosize=1;strokeColor=none;fillColor=none;" vertex="1" parent="_RFIVC-mQC5Zg40zyzjJ-9">
          <mxGeometry x="140" y="28.79120879120879" width="110" height="30" as="geometry" />
        </mxCell>
        <mxCell id="CQuIktSU1pAItVcYqkuW-58" style="edgeStyle=orthogonalEdgeStyle;rounded=0;orthogonalLoop=1;jettySize=auto;html=1;entryX=0;entryY=0.5;entryDx=0;entryDy=0;" parent="1" source="CQuIktSU1pAItVcYqkuW-53" target="FhZttKuwCezYCY0k29h0-29" edge="1">
          <mxGeometry relative="1" as="geometry">
            <Array as="points">
              <mxPoint x="660" y="589" />
              <mxPoint x="660" y="105" />
            </Array>
          </mxGeometry>
        </mxCell>
        <mxCell id="CQuIktSU1pAItVcYqkuW-61" style="edgeStyle=orthogonalEdgeStyle;rounded=0;orthogonalLoop=1;jettySize=auto;html=1;entryX=0;entryY=0.5;entryDx=0;entryDy=0;" parent="1" source="CQuIktSU1pAItVcYqkuW-53" target="FhZttKuwCezYCY0k29h0-37" edge="1">
          <mxGeometry relative="1" as="geometry">
            <Array as="points">
              <mxPoint x="660" y="589" />
              <mxPoint x="660" y="260" />
            </Array>
          </mxGeometry>
        </mxCell>
        <mxCell id="CQuIktSU1pAItVcYqkuW-62" style="edgeStyle=orthogonalEdgeStyle;rounded=0;orthogonalLoop=1;jettySize=auto;html=1;entryX=0;entryY=0.5;entryDx=0;entryDy=0;" parent="1" source="CQuIktSU1pAItVcYqkuW-53" target="FhZttKuwCezYCY0k29h0-39" edge="1">
          <mxGeometry relative="1" as="geometry">
            <Array as="points">
              <mxPoint x="660" y="589" />
              <mxPoint x="660" y="469" />
            </Array>
          </mxGeometry>
        </mxCell>
        <mxCell id="CQuIktSU1pAItVcYqkuW-63" style="edgeStyle=orthogonalEdgeStyle;rounded=0;orthogonalLoop=1;jettySize=auto;html=1;entryX=0;entryY=0.5;entryDx=0;entryDy=0;" parent="1" source="CQuIktSU1pAItVcYqkuW-53" target="CQuIktSU1pAItVcYqkuW-1" edge="1">
          <mxGeometry relative="1" as="geometry">
            <Array as="points">
              <mxPoint x="660" y="589" />
              <mxPoint x="660" y="639" />
            </Array>
          </mxGeometry>
        </mxCell>
        <mxCell id="CQuIktSU1pAItVcYqkuW-64" style="edgeStyle=orthogonalEdgeStyle;rounded=0;orthogonalLoop=1;jettySize=auto;html=1;entryX=0;entryY=0.5;entryDx=0;entryDy=0;" parent="1" source="CQuIktSU1pAItVcYqkuW-53" target="CQuIktSU1pAItVcYqkuW-16" edge="1">
          <mxGeometry relative="1" as="geometry">
            <Array as="points">
              <mxPoint x="660" y="589" />
              <mxPoint x="660" y="800" />
            </Array>
          </mxGeometry>
        </mxCell>
        <mxCell id="CQuIktSU1pAItVcYqkuW-49" style="edgeStyle=orthogonalEdgeStyle;rounded=0;orthogonalLoop=1;jettySize=auto;html=1;exitX=1;exitY=0.5;exitDx=0;exitDy=0;entryX=0.5;entryY=1;entryDx=0;entryDy=0;" parent="1" source="CQuIktSU1pAItVcYqkuW-18" target="CQuIktSU1pAItVcYqkuW-45" edge="1">
          <mxGeometry relative="1" as="geometry">
            <mxPoint x="1340" y="240.2197802197801" as="targetPoint" />
          </mxGeometry>
        </mxCell>
      </root>
    </mxGraphModel>
  </diagram>
</mxfile>
